<mxfile host="app.diagrams.net" modified="2021-01-12T17:43:12.257Z" agent="5.0 (Windows NT 10.0; Win64; x64) AppleWebKit/537.36 (KHTML, like Gecko) Chrome/87.0.4280.141 Safari/537.36" etag="lPtiE5sbSse-akx0U665" version="14.1.9" type="github">
  <diagram id="R2lEEEUBdFMjLlhIrx00" name="Page-1">
    <mxGraphModel dx="1240" dy="643" grid="1" gridSize="10" guides="1" tooltips="1" connect="1" arrows="1" fold="1" page="1" pageScale="1" pageWidth="1654" pageHeight="2336" math="0" shadow="0" extFonts="Permanent Marker^https://fonts.googleapis.com/css?family=Permanent+Marker">
      <root>
        <mxCell id="0" />
        <mxCell id="1" parent="0" />
        <mxCell id="aKHawuy6bQ2adyCAvA9a-1" value="&lt;u&gt;ID. CONTINENTE&lt;/u&gt;" style="ellipse;whiteSpace=wrap;html=1;" parent="1" vertex="1">
          <mxGeometry x="1250" y="310" width="100" height="70" as="geometry" />
        </mxCell>
        <mxCell id="aKHawuy6bQ2adyCAvA9a-3" value="&lt;u&gt;ID. TERRITORIO&lt;/u&gt;" style="ellipse;whiteSpace=wrap;html=1;" parent="1" vertex="1">
          <mxGeometry x="1180" y="130" width="100" height="70" as="geometry" />
        </mxCell>
        <mxCell id="aKHawuy6bQ2adyCAvA9a-5" value="&lt;u&gt;ID.GIOCATORE&lt;/u&gt;" style="ellipse;whiteSpace=wrap;html=1;" parent="1" vertex="1">
          <mxGeometry x="620" y="500" width="100" height="70" as="geometry" />
        </mxCell>
        <mxCell id="aKHawuy6bQ2adyCAvA9a-10" value="GEOG" style="rhombus;whiteSpace=wrap;html=1;" parent="1" vertex="1">
          <mxGeometry x="1090" y="310" width="70" height="70" as="geometry" />
        </mxCell>
        <mxCell id="aKHawuy6bQ2adyCAvA9a-11" value="POSSED" style="rhombus;whiteSpace=wrap;html=1;" parent="1" vertex="1">
          <mxGeometry x="900" y="310" width="70" height="70" as="geometry" />
        </mxCell>
        <mxCell id="aKHawuy6bQ2adyCAvA9a-12" value="PESCATA" style="rhombus;whiteSpace=wrap;html=1;" parent="1" vertex="1">
          <mxGeometry x="630" y="310" width="70" height="70" as="geometry" />
        </mxCell>
        <mxCell id="aKHawuy6bQ2adyCAvA9a-14" value="GIOCATORI" style="rounded=0;whiteSpace=wrap;html=1;" parent="1" vertex="1">
          <mxGeometry x="770" y="405" width="120" height="60" as="geometry" />
        </mxCell>
        <mxCell id="aKHawuy6bQ2adyCAvA9a-16" value="CARTE" style="rounded=0;whiteSpace=wrap;html=1;" parent="1" vertex="1">
          <mxGeometry x="400" y="220" width="120" height="60" as="geometry" />
        </mxCell>
        <mxCell id="aKHawuy6bQ2adyCAvA9a-17" value="TERRITORI" style="rounded=0;whiteSpace=wrap;html=1;" parent="1" vertex="1">
          <mxGeometry x="970" y="220" width="120" height="60" as="geometry" />
        </mxCell>
        <mxCell id="aKHawuy6bQ2adyCAvA9a-18" value="CONTINENTI" style="rounded=0;whiteSpace=wrap;html=1;" parent="1" vertex="1">
          <mxGeometry x="1240" y="405" width="120" height="60" as="geometry" />
        </mxCell>
        <mxCell id="aKHawuy6bQ2adyCAvA9a-22" value="" style="endArrow=none;html=1;exitX=1;exitY=0.5;exitDx=0;exitDy=0;entryX=0;entryY=0.5;entryDx=0;entryDy=0;" parent="1" source="aKHawuy6bQ2adyCAvA9a-16" target="aKHawuy6bQ2adyCAvA9a-12" edge="1">
          <mxGeometry width="50" height="50" relative="1" as="geometry">
            <mxPoint x="700" y="400" as="sourcePoint" />
            <mxPoint x="750" y="350" as="targetPoint" />
          </mxGeometry>
        </mxCell>
        <mxCell id="aKHawuy6bQ2adyCAvA9a-23" value="" style="endArrow=none;html=1;exitX=1;exitY=0.5;exitDx=0;exitDy=0;entryX=0;entryY=0.5;entryDx=0;entryDy=0;" parent="1" source="aKHawuy6bQ2adyCAvA9a-12" target="aKHawuy6bQ2adyCAvA9a-14" edge="1">
          <mxGeometry width="50" height="50" relative="1" as="geometry">
            <mxPoint x="700" y="400" as="sourcePoint" />
            <mxPoint x="750" y="350" as="targetPoint" />
          </mxGeometry>
        </mxCell>
        <mxCell id="aKHawuy6bQ2adyCAvA9a-24" value="" style="endArrow=none;html=1;entryX=0;entryY=0.5;entryDx=0;entryDy=0;exitX=1;exitY=0.5;exitDx=0;exitDy=0;" parent="1" source="aKHawuy6bQ2adyCAvA9a-14" target="aKHawuy6bQ2adyCAvA9a-11" edge="1">
          <mxGeometry width="50" height="50" relative="1" as="geometry">
            <mxPoint x="700" y="400" as="sourcePoint" />
            <mxPoint x="750" y="350" as="targetPoint" />
          </mxGeometry>
        </mxCell>
        <mxCell id="aKHawuy6bQ2adyCAvA9a-25" value="" style="endArrow=none;html=1;entryX=0;entryY=0.5;entryDx=0;entryDy=0;exitX=1;exitY=0.5;exitDx=0;exitDy=0;" parent="1" source="aKHawuy6bQ2adyCAvA9a-11" target="aKHawuy6bQ2adyCAvA9a-17" edge="1">
          <mxGeometry width="50" height="50" relative="1" as="geometry">
            <mxPoint x="700" y="400" as="sourcePoint" />
            <mxPoint x="750" y="350" as="targetPoint" />
          </mxGeometry>
        </mxCell>
        <mxCell id="aKHawuy6bQ2adyCAvA9a-26" value="" style="endArrow=none;html=1;entryX=0;entryY=0.5;entryDx=0;entryDy=0;exitX=1;exitY=0.5;exitDx=0;exitDy=0;" parent="1" source="aKHawuy6bQ2adyCAvA9a-17" target="aKHawuy6bQ2adyCAvA9a-10" edge="1">
          <mxGeometry width="50" height="50" relative="1" as="geometry">
            <mxPoint x="700" y="400" as="sourcePoint" />
            <mxPoint x="750" y="350" as="targetPoint" />
          </mxGeometry>
        </mxCell>
        <mxCell id="aKHawuy6bQ2adyCAvA9a-27" value="" style="endArrow=none;html=1;entryX=0;entryY=0.5;entryDx=0;entryDy=0;exitX=1;exitY=0.5;exitDx=0;exitDy=0;" parent="1" source="aKHawuy6bQ2adyCAvA9a-10" target="aKHawuy6bQ2adyCAvA9a-18" edge="1">
          <mxGeometry width="50" height="50" relative="1" as="geometry">
            <mxPoint x="700" y="400" as="sourcePoint" />
            <mxPoint x="750" y="350" as="targetPoint" />
          </mxGeometry>
        </mxCell>
        <mxCell id="aKHawuy6bQ2adyCAvA9a-33" value="" style="endArrow=none;html=1;exitX=0.5;exitY=0;exitDx=0;exitDy=0;entryX=0;entryY=1;entryDx=0;entryDy=0;" parent="1" source="aKHawuy6bQ2adyCAvA9a-5" target="aKHawuy6bQ2adyCAvA9a-14" edge="1">
          <mxGeometry width="50" height="50" relative="1" as="geometry">
            <mxPoint x="710" y="400" as="sourcePoint" />
            <mxPoint x="760" y="350" as="targetPoint" />
          </mxGeometry>
        </mxCell>
        <mxCell id="aKHawuy6bQ2adyCAvA9a-34" value="" style="endArrow=none;html=1;entryX=0;entryY=1;entryDx=0;entryDy=0;exitX=1;exitY=0;exitDx=0;exitDy=0;" parent="1" source="aKHawuy6bQ2adyCAvA9a-17" target="aKHawuy6bQ2adyCAvA9a-3" edge="1">
          <mxGeometry width="50" height="50" relative="1" as="geometry">
            <mxPoint x="710" y="400" as="sourcePoint" />
            <mxPoint x="760" y="350" as="targetPoint" />
          </mxGeometry>
        </mxCell>
        <mxCell id="aKHawuy6bQ2adyCAvA9a-35" value="" style="endArrow=none;html=1;entryX=0.5;entryY=1;entryDx=0;entryDy=0;exitX=0.5;exitY=0;exitDx=0;exitDy=0;" parent="1" source="aKHawuy6bQ2adyCAvA9a-18" target="aKHawuy6bQ2adyCAvA9a-1" edge="1">
          <mxGeometry width="50" height="50" relative="1" as="geometry">
            <mxPoint x="710" y="400" as="sourcePoint" />
            <mxPoint x="760" y="350" as="targetPoint" />
          </mxGeometry>
        </mxCell>
        <mxCell id="Ccf0kIaKDIwk3WOplK8F-1" value="NOME" style="ellipse;whiteSpace=wrap;html=1;" vertex="1" parent="1">
          <mxGeometry x="1260" y="500" width="100" height="70" as="geometry" />
        </mxCell>
        <mxCell id="Ccf0kIaKDIwk3WOplK8F-2" value="NUM.ARMATE" style="ellipse;whiteSpace=wrap;html=1;" vertex="1" parent="1">
          <mxGeometry x="1140" y="500" width="100" height="70" as="geometry" />
        </mxCell>
        <mxCell id="Ccf0kIaKDIwk3WOplK8F-3" value="" style="endArrow=none;html=1;entryX=0.5;entryY=1;entryDx=0;entryDy=0;exitX=1;exitY=0;exitDx=0;exitDy=0;" edge="1" parent="1" source="Ccf0kIaKDIwk3WOplK8F-2" target="aKHawuy6bQ2adyCAvA9a-18">
          <mxGeometry width="50" height="50" relative="1" as="geometry">
            <mxPoint x="720" y="460" as="sourcePoint" />
            <mxPoint x="770" y="410" as="targetPoint" />
          </mxGeometry>
        </mxCell>
        <mxCell id="Ccf0kIaKDIwk3WOplK8F-4" value="" style="endArrow=none;html=1;entryX=0.583;entryY=1.033;entryDx=0;entryDy=0;entryPerimeter=0;exitX=0.5;exitY=0;exitDx=0;exitDy=0;" edge="1" parent="1" source="Ccf0kIaKDIwk3WOplK8F-1" target="aKHawuy6bQ2adyCAvA9a-18">
          <mxGeometry width="50" height="50" relative="1" as="geometry">
            <mxPoint x="720" y="460" as="sourcePoint" />
            <mxPoint x="770" y="410" as="targetPoint" />
          </mxGeometry>
        </mxCell>
        <mxCell id="Ccf0kIaKDIwk3WOplK8F-5" value="NOME" style="ellipse;whiteSpace=wrap;html=1;" vertex="1" parent="1">
          <mxGeometry x="940" y="130" width="100" height="70" as="geometry" />
        </mxCell>
        <mxCell id="Ccf0kIaKDIwk3WOplK8F-6" value="ELENCOCONF" style="ellipse;whiteSpace=wrap;html=1;" vertex="1" parent="1">
          <mxGeometry x="820" y="130" width="100" height="70" as="geometry" />
        </mxCell>
        <mxCell id="Ccf0kIaKDIwk3WOplK8F-7" value="" style="endArrow=none;html=1;entryX=0.5;entryY=1;entryDx=0;entryDy=0;exitX=0.5;exitY=0;exitDx=0;exitDy=0;" edge="1" parent="1" source="aKHawuy6bQ2adyCAvA9a-17" target="Ccf0kIaKDIwk3WOplK8F-5">
          <mxGeometry width="50" height="50" relative="1" as="geometry">
            <mxPoint x="720" y="460" as="sourcePoint" />
            <mxPoint x="770" y="410" as="targetPoint" />
          </mxGeometry>
        </mxCell>
        <mxCell id="Ccf0kIaKDIwk3WOplK8F-8" value="" style="endArrow=none;html=1;entryX=1;entryY=1;entryDx=0;entryDy=0;exitX=0;exitY=0;exitDx=0;exitDy=0;" edge="1" parent="1" source="aKHawuy6bQ2adyCAvA9a-17" target="Ccf0kIaKDIwk3WOplK8F-6">
          <mxGeometry width="50" height="50" relative="1" as="geometry">
            <mxPoint x="720" y="460" as="sourcePoint" />
            <mxPoint x="770" y="410" as="targetPoint" />
          </mxGeometry>
        </mxCell>
        <mxCell id="Ccf0kIaKDIwk3WOplK8F-19" value="TIPOLOGIA CARTE" style="ellipse;whiteSpace=wrap;html=1;" vertex="1" parent="1">
          <mxGeometry x="410" y="320" width="100" height="70" as="geometry" />
        </mxCell>
        <mxCell id="Ccf0kIaKDIwk3WOplK8F-20" value="CARTEORDIN" style="ellipse;whiteSpace=wrap;html=1;" vertex="1" parent="1">
          <mxGeometry x="347" y="440" width="100" height="70" as="geometry" />
        </mxCell>
        <mxCell id="Ccf0kIaKDIwk3WOplK8F-21" value="CARTEJOLLY" style="ellipse;whiteSpace=wrap;html=1;" vertex="1" parent="1">
          <mxGeometry x="470" y="440" width="100" height="70" as="geometry" />
        </mxCell>
        <mxCell id="Ccf0kIaKDIwk3WOplK8F-22" value="CAVALLERIA" style="ellipse;whiteSpace=wrap;html=1;" vertex="1" parent="1">
          <mxGeometry x="220" y="560" width="100" height="70" as="geometry" />
        </mxCell>
        <mxCell id="Ccf0kIaKDIwk3WOplK8F-24" value="FANTERIA" style="ellipse;whiteSpace=wrap;html=1;" vertex="1" parent="1">
          <mxGeometry x="440" y="560" width="100" height="70" as="geometry" />
        </mxCell>
        <mxCell id="Ccf0kIaKDIwk3WOplK8F-25" value="" style="endArrow=none;html=1;entryX=0.5;entryY=1;entryDx=0;entryDy=0;" edge="1" target="Ccf0kIaKDIwk3WOplK8F-20" parent="1" source="Ccf0kIaKDIwk3WOplK8F-23">
          <mxGeometry width="50" height="50" relative="1" as="geometry">
            <mxPoint x="380.0000000000002" y="690" as="sourcePoint" />
            <mxPoint x="440" y="710" as="targetPoint" />
          </mxGeometry>
        </mxCell>
        <mxCell id="Ccf0kIaKDIwk3WOplK8F-26" value="" style="endArrow=none;html=1;entryX=0;entryY=1;entryDx=0;entryDy=0;exitX=1;exitY=0;exitDx=0;exitDy=0;" edge="1" source="Ccf0kIaKDIwk3WOplK8F-22" target="Ccf0kIaKDIwk3WOplK8F-20" parent="1">
          <mxGeometry width="50" height="50" relative="1" as="geometry">
            <mxPoint x="390" y="760" as="sourcePoint" />
            <mxPoint x="440" y="710" as="targetPoint" />
          </mxGeometry>
        </mxCell>
        <mxCell id="Ccf0kIaKDIwk3WOplK8F-27" value="" style="endArrow=none;html=1;entryX=1;entryY=1;entryDx=0;entryDy=0;exitX=0;exitY=0;exitDx=0;exitDy=0;" edge="1" source="Ccf0kIaKDIwk3WOplK8F-24" target="Ccf0kIaKDIwk3WOplK8F-20" parent="1">
          <mxGeometry width="50" height="50" relative="1" as="geometry">
            <mxPoint x="390" y="760" as="sourcePoint" />
            <mxPoint x="440" y="710" as="targetPoint" />
          </mxGeometry>
        </mxCell>
        <mxCell id="Ccf0kIaKDIwk3WOplK8F-28" value="" style="endArrow=none;html=1;entryX=0;entryY=1;entryDx=0;entryDy=0;exitX=0.5;exitY=0;exitDx=0;exitDy=0;" edge="1" source="Ccf0kIaKDIwk3WOplK8F-20" target="Ccf0kIaKDIwk3WOplK8F-19" parent="1">
          <mxGeometry width="50" height="50" relative="1" as="geometry">
            <mxPoint x="390" y="760" as="sourcePoint" />
            <mxPoint x="440" y="710" as="targetPoint" />
          </mxGeometry>
        </mxCell>
        <mxCell id="Ccf0kIaKDIwk3WOplK8F-29" value="" style="endArrow=none;html=1;entryX=1;entryY=1;entryDx=0;entryDy=0;exitX=0;exitY=0;exitDx=0;exitDy=0;" edge="1" source="Ccf0kIaKDIwk3WOplK8F-21" target="Ccf0kIaKDIwk3WOplK8F-19" parent="1">
          <mxGeometry width="50" height="50" relative="1" as="geometry">
            <mxPoint x="390" y="760" as="sourcePoint" />
            <mxPoint x="440" y="710" as="targetPoint" />
          </mxGeometry>
        </mxCell>
        <mxCell id="Ccf0kIaKDIwk3WOplK8F-23" value="ARTIGLIERIA" style="ellipse;whiteSpace=wrap;html=1;" vertex="1" parent="1">
          <mxGeometry x="330" y="560" width="100" height="70" as="geometry" />
        </mxCell>
        <mxCell id="Ccf0kIaKDIwk3WOplK8F-30" value="" style="endArrow=none;html=1;entryX=0.5;entryY=1;entryDx=0;entryDy=0;exitX=0.5;exitY=0;exitDx=0;exitDy=0;" edge="1" parent="1" source="Ccf0kIaKDIwk3WOplK8F-19" target="aKHawuy6bQ2adyCAvA9a-16">
          <mxGeometry width="50" height="50" relative="1" as="geometry">
            <mxPoint x="380" y="690" as="sourcePoint" />
            <mxPoint x="397" y="510" as="targetPoint" />
          </mxGeometry>
        </mxCell>
        <mxCell id="Ccf0kIaKDIwk3WOplK8F-31" value="NOME" style="ellipse;whiteSpace=wrap;html=1;" vertex="1" parent="1">
          <mxGeometry x="727" y="500" width="100" height="70" as="geometry" />
        </mxCell>
        <mxCell id="Ccf0kIaKDIwk3WOplK8F-34" value="COLORE" style="ellipse;whiteSpace=wrap;html=1;" vertex="1" parent="1">
          <mxGeometry x="950" y="500" width="100" height="70" as="geometry" />
        </mxCell>
        <mxCell id="Ccf0kIaKDIwk3WOplK8F-35" value="ORDINE" style="ellipse;whiteSpace=wrap;html=1;" vertex="1" parent="1">
          <mxGeometry x="840" y="500" width="100" height="70" as="geometry" />
        </mxCell>
        <mxCell id="Ccf0kIaKDIwk3WOplK8F-36" value="" style="endArrow=none;html=1;entryX=1;entryY=1;entryDx=0;entryDy=0;exitX=0.5;exitY=0;exitDx=0;exitDy=0;" edge="1" parent="1" source="Ccf0kIaKDIwk3WOplK8F-34" target="aKHawuy6bQ2adyCAvA9a-14">
          <mxGeometry width="50" height="50" relative="1" as="geometry">
            <mxPoint x="720" y="460" as="sourcePoint" />
            <mxPoint x="770" y="410" as="targetPoint" />
          </mxGeometry>
        </mxCell>
        <mxCell id="Ccf0kIaKDIwk3WOplK8F-37" value="" style="endArrow=none;html=1;entryX=0.75;entryY=1;entryDx=0;entryDy=0;exitX=0.5;exitY=0;exitDx=0;exitDy=0;" edge="1" parent="1" source="Ccf0kIaKDIwk3WOplK8F-35" target="aKHawuy6bQ2adyCAvA9a-14">
          <mxGeometry width="50" height="50" relative="1" as="geometry">
            <mxPoint x="720" y="460" as="sourcePoint" />
            <mxPoint x="770" y="410" as="targetPoint" />
          </mxGeometry>
        </mxCell>
        <mxCell id="Ccf0kIaKDIwk3WOplK8F-38" value="" style="endArrow=none;html=1;entryX=0.5;entryY=1;entryDx=0;entryDy=0;exitX=0.5;exitY=0;exitDx=0;exitDy=0;" edge="1" parent="1" source="Ccf0kIaKDIwk3WOplK8F-31" target="aKHawuy6bQ2adyCAvA9a-14">
          <mxGeometry width="50" height="50" relative="1" as="geometry">
            <mxPoint x="720" y="460" as="sourcePoint" />
            <mxPoint x="770" y="410" as="targetPoint" />
          </mxGeometry>
        </mxCell>
        <mxCell id="Ccf0kIaKDIwk3WOplK8F-39" value="&lt;u&gt;ID.CARTE&lt;/u&gt;" style="ellipse;whiteSpace=wrap;html=1;" vertex="1" parent="1">
          <mxGeometry x="290" y="320" width="100" height="70" as="geometry" />
        </mxCell>
        <mxCell id="Ccf0kIaKDIwk3WOplK8F-40" value="" style="endArrow=none;html=1;entryX=0;entryY=1;entryDx=0;entryDy=0;exitX=1;exitY=0;exitDx=0;exitDy=0;" edge="1" parent="1" source="Ccf0kIaKDIwk3WOplK8F-39" target="aKHawuy6bQ2adyCAvA9a-16">
          <mxGeometry width="50" height="50" relative="1" as="geometry">
            <mxPoint x="780" y="460" as="sourcePoint" />
            <mxPoint x="830" y="410" as="targetPoint" />
          </mxGeometry>
        </mxCell>
        <mxCell id="Ccf0kIaKDIwk3WOplK8F-41" value="(1,1)" style="text;html=1;strokeColor=none;fillColor=none;align=center;verticalAlign=middle;whiteSpace=wrap;rounded=0;" vertex="1" parent="1">
          <mxGeometry x="1090" y="280" width="40" height="20" as="geometry" />
        </mxCell>
        <mxCell id="Ccf0kIaKDIwk3WOplK8F-42" value="(1,N)" style="text;html=1;strokeColor=none;fillColor=none;align=center;verticalAlign=middle;whiteSpace=wrap;rounded=0;" vertex="1" parent="1">
          <mxGeometry x="1200" y="360" width="40" height="20" as="geometry" />
        </mxCell>
        <mxCell id="Ccf0kIaKDIwk3WOplK8F-43" value="(0,N)" style="text;html=1;strokeColor=none;fillColor=none;align=center;verticalAlign=middle;whiteSpace=wrap;rounded=0;" vertex="1" parent="1">
          <mxGeometry x="850" y="370" width="40" height="20" as="geometry" />
        </mxCell>
        <mxCell id="Ccf0kIaKDIwk3WOplK8F-44" value="(1,1)" style="text;html=1;strokeColor=none;fillColor=none;align=center;verticalAlign=middle;whiteSpace=wrap;rounded=0;" vertex="1" parent="1">
          <mxGeometry x="920" y="280" width="40" height="20" as="geometry" />
        </mxCell>
        <mxCell id="Ccf0kIaKDIwk3WOplK8F-45" value="(1,1)" style="text;html=1;strokeColor=none;fillColor=none;align=center;verticalAlign=middle;whiteSpace=wrap;rounded=0;" vertex="1" parent="1">
          <mxGeometry x="550" y="260" width="40" height="20" as="geometry" />
        </mxCell>
        <mxCell id="Ccf0kIaKDIwk3WOplK8F-46" value="(1,N)" style="text;html=1;strokeColor=none;fillColor=none;align=center;verticalAlign=middle;whiteSpace=wrap;rounded=0;" vertex="1" parent="1">
          <mxGeometry x="740" y="370" width="40" height="20" as="geometry" />
        </mxCell>
        <mxCell id="Ccf0kIaKDIwk3WOplK8F-47" value="ARM.PRESENTI" style="ellipse;whiteSpace=wrap;html=1;" vertex="1" parent="1">
          <mxGeometry x="1060" y="130" width="100" height="70" as="geometry" />
        </mxCell>
        <mxCell id="Ccf0kIaKDIwk3WOplK8F-48" value="" style="endArrow=none;html=1;entryX=0;entryY=1;entryDx=0;entryDy=0;exitX=0.5;exitY=0;exitDx=0;exitDy=0;" edge="1" parent="1" source="aKHawuy6bQ2adyCAvA9a-17" target="Ccf0kIaKDIwk3WOplK8F-47">
          <mxGeometry width="50" height="50" relative="1" as="geometry">
            <mxPoint x="780" y="460" as="sourcePoint" />
            <mxPoint x="830" y="410" as="targetPoint" />
          </mxGeometry>
        </mxCell>
      </root>
    </mxGraphModel>
  </diagram>
</mxfile>
